# xmcd
#
# Track frame offsets: 
#        150
#        18359
#        39913
#        54091
#        81093
#        101432
#
# Disc length: 1660 seconds
#
# Revision: 0
# Processed by: cddbd v1.5.2PL0 Copyright (c) Steve Scherf et al.
# Submitted via: ExactAudioCopyFreeDBPlugin 1.0
#
DISCID=35067a06
DTITLE=Con Brio - Kiss The Sun
DYEAR=2014
DGENRE=R&B
TTITLE0=Give It All
TTITLE1=Never Be The Same
TTITLE2=California Cowboy
TTITLE3=Kiss The Sun
TTITLE4=Temptation's Talking
TTITLE5=A Sex Surpreme
EXTD=
EXTT0=
EXTT1=
EXTT2=
EXTT3=
EXTT4=
EXTT5=
PLAYORDER=
